<?xml version="1.0" encoding="utf-8"?>
<!-- Generator: Adobe Illustrator 26.2.1, SVG Export Plug-In . SVG Version: 6.00 Build 0)  -->
<svg version="1.1" id="Layer_1" xmlns="http://www.w3.org/2000/svg" xmlns:xlink="http://www.w3.org/1999/xlink" x="0px" y="0px"
	 viewBox="0 0 725.9 287.4" style="enable-background:new 0 0 725.9 287.4;" xml:space="preserve">
<style type="text/css">
	.st0{fill:#FFFFFF;}
	.st1{fill:#231F20;}
</style>
<path class="st0" d="M672.4,287.4h-619C23.9,287.4,0,263.5,0,234V53.4C0,23.9,23.9,0,53.4,0h619c29.5,0,53.4,23.9,53.4,53.4V234
	C725.8,263.5,701.9,287.4,672.4,287.4z"/>
<path class="st1" d="M672.4,287.4h-619C23.9,287.4,0,263.5,0,234V53.4C0,23.9,23.9,0,53.4,0h619c29.5,0,53.4,23.9,53.4,53.4V234
	C725.8,263.5,701.9,287.4,672.4,287.4z M53.4,8.9c-24.6,0-44.5,20-44.6,44.6V234c0,24.6,20,44.6,44.6,44.6h619
	c24.6,0,44.5-20,44.6-44.6V53.4c0-24.6-20-44.5-44.6-44.6H53.4z"/>
<g>
	<path class="st1" d="M161.3,189.6c-2.8,11.3-6.7,21.9-14.1,30.8c-1.7,2-3.6,3.8-5.7,5.3c-5.9,4.1-12.8,2.5-16.3-3.9
		c-2-3.7-3.3-7.7-4-11.8c-1-6.3-1.8-12.6-3-18.9c-1-5.2-2.6-10.2-5.8-14.5c-0.7-0.9-1.5-1.7-2.3-2.5c-2.3-2.2-5.9-2.3-8.4-0.3
		c-2.5,1.9-4.4,4.5-5.5,7.4c-2.4,5.1-3.5,10.5-4.4,16c-1,6.4-1.3,12.9-3.4,19c-0.9,2.6-2.1,5-3.6,7.2c-3,4.4-8.2,5.6-13,3.3
		c-3.9-1.8-6.7-4.9-9.2-8.3c-6-8.2-9.6-17.5-12.1-27.2c-1.5-6.4-2.5-13-3-19.6c-0.5-5.4-1-10.9-1.7-16.3c-0.6-4.1-2.6-7.8-4.2-11.6
		c-3.2-6.9-5.5-14.2-6.8-21.7c-1.2-7-1.3-14.1-0.3-21.1c1.1-7.4,3.4-14.4,8-20.5c5.2-7,12.9-11.7,21.5-13c8.2-1.4,15.9,0.2,23.5,3.2
		c3.7,1.5,7.5,2.8,11.4,3.8c5.8,1.4,11.5,0.4,17-2c4.6-2,9.2-4.1,14.3-4.8c13.7-2.1,25.4,1.4,34.3,12.5c1,1.1,1.8,2.5,2.2,4
		c0.3,1.5-1.6,2.3-2.4,3.5c-0.7,1-1.5,1.8-2.3,2.8c-0.2-0.4-0.4-0.7-0.6-1c-4.7-9.9-12.7-14.6-23.5-15.1c-4.5-0.1-9,0.7-13.1,2.4
		c-3.7,1.5-7.4,2.9-11.1,4.3c3.5,1.3,7.1,1.9,10.9,2c1.5,0,3-0.1,4.5,0c0.6,0.1,1.1,0.4,1.4,0.9c0.4,0.8-0.2,1.2-1,1.5
		c-4.2,1.4-8.7,2-13.1,1.6c-9.5-0.7-18.2-4-26.8-7.7c-4.5-2.1-9.2-3.6-14.1-4.6C61.5,72.2,49,79.2,44,92.9c-2.1,6.3-3.1,13-2.7,19.7
		c0.2,10.7,3.5,20.6,7.8,30.3c2.1,4.7,4,9.4,4.6,14.6c0.5,3.9,0.8,7.7,1.1,11.6c1,14.2,3.7,28.1,10.7,40.7c2,3.6,4.1,7.1,7.5,9.6
		c0.8,0.6,1.7,1.1,2.7,1.3c1.7,0.4,3.5-0.3,4.4-1.9c1.6-2.5,2.6-5.3,2.9-8.3c0.8-5.1,1.4-10.1,2.2-15.2c1.2-7.2,2.8-14.2,6.6-20.6
		c2.1-3.6,4.8-6.8,8.8-8.6c5.4-2.5,11.6-1,15.9,3.8c0.3,0.3,0.6,0.7,0.9,1c1.1,1.2,1.8,2.8,1.7,4.4c-0.3,4,1.5,7.9,4.6,10.4
		c1.7,1.4,1.8,3.2,2.1,5c0.8,5.3,1.4,10.6,2.3,15.8c0.5,3.5,1.4,6.9,2.5,10.2c1.7,4.6,4.8,5.3,8.6,2.3c2.4-2.1,4.4-4.6,6-7.4
		c3.3-5.6,5.9-11.6,7.9-17.8c0.2-0.5,0.6-1,1.1-1.2C156.3,191.5,158.7,190.6,161.3,189.6z"/>
	<path class="st1" d="M134.4,186.6c4.3-6.9,9.1-13.5,14.2-19.9c1.8-2.2,3.6-4.4,5.4-6.7c0.4-0.8,1.3-1.1,2.1-0.7
		c0.7,0.2,1.3,0.4,2,0.4c2.1,0.4,4.2-0.4,5.5-2.1c3.6-4.5,6.6-9.4,8.9-14.7c1.6-3.4,3.1-6.9,4.4-10.5c0.8-2.2,0-4.1-1.9-5.6
		c-1-0.8-1.8-1.7-2.6-2.7c-0.2-0.4-0.3-0.8-0.1-1.2c4.6-9.6,9.7-19,15.2-28.1c0.2-0.2,0.4-0.5,0.6-0.7c1.4,1.8,2.9,3.5,4.2,5.4
		c4.5,6.6,5.9,13.9,5,21.7c-1.9,17.4-8.8,32.6-19.3,46.4c-4.5,6.2-10.2,11.5-16.7,15.6c-5.8,3.5-11.9,5.7-18.8,5.5
		C139.5,188.8,136.2,187.9,134.4,186.6z"/>
	<path class="st1" d="M185.7,92.7c-6.2,9.4-11.2,19.4-16.2,29.4c-6.8-1.9-10.7-8.9-8.8-15.7c0.1-0.3,0.2-0.7,0.3-1
		c2.3-5.4,5.3-10.6,8.9-15.2c2-3,6.1-4,9.3-2.2C181.7,89,183.9,90.6,185.7,92.7z"/>
	<path class="st1" d="M152.4,157.5c-7.5,9.1-14.6,17.9-20.5,27.7c-2.3-1.1-4.4-2.9-5.9-5c-2.7-3.3-2.9-7.9-0.4-11.4
		c2.5-3.8,5.3-7.4,8.5-10.7c3.5-3.6,7.6-4.7,12.3-3.1C148.3,155.8,150.2,156.7,152.4,157.5z"/>
	<path class="st1" d="M219.2,106v1.2c0,2-1,3.2-2.8,3.3c-1.7,0-3.1-1.3-3.1-3c0-0.1,0-0.2,0-0.2c-0.1-5.5-1.3-11-3.4-16.1
		c-5.2-12.1-13.7-20.8-26.3-25.2c-0.5-0.2-1.1-0.3-1.6-0.5c-1.6-0.6-2.5-2.3-2-4c0,0,0,0,0,0c0.5-1.5,2.1-2.3,3.6-1.9c0,0,0,0,0.1,0
		c9.4,2.4,16.9,7.8,23.1,15c6.6,7.6,10.8,16.9,12,26.9C219,103,219.1,104.5,219.2,106L219.2,106z"/>
	<path class="st1" d="M104.7,146.4c-8.1-0.2-15.3-2.8-21.1-8.8c-1.2-1-1.6-2.7-0.9-4.2c0.7-1.6,2.5-2.3,4-1.6c0.4,0.2,0.7,0.4,1,0.6
		c3.7,3.6,8.5,5.9,13.6,6.6c7.3,1.1,14.1,0,20.1-4.6c0.7-0.6,1.3-1.2,1.9-1.8c1.1-1.2,3-1.4,4.3-0.4c1.4,1,1.7,3,0.7,4.4
		c0,0,0,0,0,0.1c-1.5,1.7-3.1,3.3-4.9,4.6c-4,2.8-8.7,4.4-13.6,4.7L104.7,146.4z"/>
	<path class="st1" d="M204.7,110c-1.6-0.1-3-1.4-3-3.1c-0.6-6.6-3.1-12.9-7-18.2c-3.8-5.2-9.1-9.1-15.2-11.2
		c-2.2-0.7-3.1-2.4-2.4-4.3c0.5-1.5,2-2.3,3.5-1.9c0,0,0,0,0.1,0c6,1.7,11.4,5,15.5,9.6c6.1,6.4,10.1,14.6,11.2,23.4
		c0.2,1.1,0.2,2.2,0,3.2C207.2,109.1,206,110.1,204.7,110z"/>
	<path class="st1" d="M164.5,126.3l5.5,2.5c-0.5,1.5-1,3.2-1.5,4.8c-1.9,5.9-4.4,11.6-7.5,17c-0.5,0.9-1.1,1.8-1.7,2.6
		c-1.3,1.8-2.2,1.9-4,0.6c-0.6-0.3-0.8-0.9-0.5-1.5c0,0,0,0,0-0.1c1.7-4.1,3.4-8.1,4.9-12.2c1.6-4.4,3.1-8.9,4.6-13.3
		C164.3,126.6,164.4,126.4,164.5,126.3z"/>
	<path class="st1" d="M82.8,121.4c-1.4,0-2.7-0.6-3.6-1.7c-3-3.3-3.1-8.4-0.2-11.8c2.5-2.7,6-2.6,8.3,0.4c2.4,3.3,2.4,7.8-0.1,11
		C86.2,120.7,84.6,121.5,82.8,121.4z"/>
	<path class="st1" d="M134.1,113.8c0,2.3-0.9,4.4-2.5,6c-1.9,2-5,2.1-7.1,0.3c-0.1-0.1-0.1-0.1-0.2-0.2c-3.2-3-3.4-9.1-0.2-12.3
		c1.9-2.1,5.1-2.3,7.2-0.4c0.2,0.2,0.4,0.4,0.5,0.5C133.4,109.4,134.2,111.6,134.1,113.8z"/>
</g>
<g>
	<g>
		<path class="st1" d="M250.2,123.7c-2.6,0-5-0.4-7.3-1.2c-2.3-0.8-4.2-1.7-5.7-2.9l2.9-7.9c1.4,1.1,3,2,4.8,2.7
			c1.8,0.7,3.6,1,5.4,1c1.2,0,2.2-0.1,2.9-0.4c0.7-0.2,1.2-0.6,1.6-1.1c0.3-0.5,0.5-1,0.5-1.7c0-0.8-0.3-1.5-1-2
			c-0.6-0.5-1.5-0.9-2.5-1.2c-1-0.3-2.2-0.7-3.4-1c-1.2-0.3-2.5-0.7-3.7-1.2c-1.3-0.5-2.4-1.2-3.4-2c-1-0.8-1.9-1.9-2.5-3.2
			c-0.6-1.3-0.9-3-0.9-5c0-2.2,0.5-4.2,1.5-6.1c1-1.8,2.5-3.3,4.5-4.4c2-1.1,4.5-1.7,7.6-1.7c2,0,4,0.3,6,0.8
			c1.9,0.6,3.7,1.4,5.2,2.5l-2.6,7.8c-1.5-1-2.9-1.7-4.4-2.2c-1.4-0.5-2.8-0.7-4.2-0.7c-1.2,0-2.2,0.2-2.9,0.5
			c-0.7,0.3-1.3,0.7-1.6,1.2c-0.3,0.5-0.5,1-0.5,1.6c0,0.9,0.3,1.5,1,2c0.6,0.5,1.5,0.9,2.5,1.2c1,0.3,2.2,0.6,3.4,0.9
			c1.2,0.3,2.5,0.7,3.7,1.2s2.4,1.1,3.4,1.9c1,0.8,1.9,1.9,2.5,3.2c0.6,1.3,1,2.9,1,4.9c0,2.2-0.5,4.2-1.5,6c-1,1.8-2.5,3.3-4.6,4.4
			C255.8,123.2,253.3,123.7,250.2,123.7z"/>
		<path class="st1" d="M276.5,114.7h16.1v8.3h-24.7V85.5H292v8.3h-15.5V114.7z M275.8,100h14.3v7.9h-14.3V100z"/>
		<path class="st1" d="M319,123h-8.7V85.5h8.7V123z M331.4,108.4h-13.1v-8.8h13.1V108.4z M330.8,85.5h8.7V123h-8.7V85.5z"/>
		<path class="st1" d="M342,123l13.6-37.5h8.6l13.6,37.5h-9.1l-10.6-32.3h3.4L350.8,123H342z M349.4,115.7l2.2-7.8h15l2.2,7.8H349.4
			z"/>
		<path class="st1" d="M380.3,123V85.5h15.7c4.1,0,7.1,0.9,9.1,2.7c2,1.8,3,4.2,3,7.1c0,1.9-0.4,3.6-1.2,5.1c-0.8,1.5-2,2.6-3.5,3.4
			c-1.5,0.8-3.3,1.2-5.4,1.2l0.8-2.6c2.1,0,4,0.4,5.7,1.2c1.6,0.8,2.9,2,3.8,3.5c0.9,1.5,1.3,3.4,1.3,5.5c0,3.2-1.1,5.7-3.2,7.6
			s-5.3,2.7-9.5,2.7H380.3z M388.8,115.3h7.3c1.5,0,2.7-0.3,3.4-0.9c0.8-0.6,1.1-1.6,1.1-2.9s-0.4-2.2-1.1-2.9
			c-0.8-0.6-1.9-0.9-3.4-0.9h-7.9v-7.3h6.6c1.5,0,2.6-0.3,3.3-0.9c0.7-0.6,1.1-1.5,1.1-2.7c0-1.2-0.4-2.2-1.1-2.8
			c-0.7-0.6-1.8-0.9-3.3-0.9h-6V115.3z"/>
		<path class="st1" d="M414.1,123V85.5h8.7v29.1h14.6v8.4H414.1z"/>
		<path class="st1" d="M437.5,123l13.6-37.5h8.6l13.6,37.5h-9.1l-10.6-32.3h3.4L446.4,123H437.5z M444.9,115.7l2.2-7.8h15l2.2,7.8
			H444.9z"/>
		<path class="st1" d="M497.2,114.7h16.1v8.3h-24.7V85.5h24.1v8.3h-15.5V114.7z M496.6,100h14.3v7.9h-14.3V100z"/>
		<path class="st1" d="M528.9,123.7c-2.6,0-5-0.4-7.3-1.2c-2.3-0.8-4.2-1.7-5.7-2.9l2.9-7.9c1.4,1.1,3,2,4.8,2.7
			c1.8,0.7,3.6,1,5.4,1c1.2,0,2.2-0.1,2.9-0.4c0.7-0.2,1.2-0.6,1.6-1.1c0.3-0.5,0.5-1,0.5-1.7c0-0.8-0.3-1.5-1-2
			c-0.6-0.5-1.5-0.9-2.5-1.2c-1-0.3-2.2-0.7-3.4-1c-1.2-0.3-2.5-0.7-3.7-1.2c-1.3-0.5-2.4-1.2-3.4-2c-1-0.8-1.9-1.9-2.5-3.2
			c-0.6-1.3-0.9-3-0.9-5c0-2.2,0.5-4.2,1.5-6.1c1-1.8,2.5-3.3,4.5-4.4c2-1.1,4.5-1.7,7.6-1.7c2,0,4,0.3,6,0.8
			c1.9,0.6,3.7,1.4,5.2,2.5l-2.6,7.8c-1.5-1-2.9-1.7-4.4-2.2c-1.4-0.5-2.8-0.7-4.2-0.7c-1.2,0-2.2,0.2-2.9,0.5
			c-0.7,0.3-1.3,0.7-1.6,1.2c-0.3,0.5-0.5,1-0.5,1.6c0,0.9,0.3,1.5,1,2c0.6,0.5,1.5,0.9,2.5,1.2c1,0.3,2.2,0.6,3.4,0.9
			c1.2,0.3,2.5,0.7,3.7,1.2s2.4,1.1,3.4,1.9s1.9,1.9,2.5,3.2c0.6,1.3,1,2.9,1,4.9c0,2.2-0.5,4.2-1.5,6c-1,1.8-2.5,3.3-4.6,4.4
			C534.5,123.2,532,123.7,528.9,123.7z"/>
		<path class="st1" d="M546.6,123V85.5h14c2.8,0,5.2,0.6,7.3,1.7c2.1,1.1,3.6,2.7,4.7,4.8s1.6,4.5,1.6,7.4c0,2.9-0.5,5.4-1.6,7.4
			c-1.1,2.1-2.7,3.6-4.7,4.8c-2.1,1.1-4.5,1.7-7.3,1.7h-9.2l3.9-4.7V123H546.6z M555.3,109.8l-3.9-5h8.7c1.8,0,3.2-0.5,4.1-1.4
			c0.9-0.9,1.4-2.3,1.4-4c0-1.7-0.5-3-1.4-4c-0.9-1-2.3-1.5-4.1-1.5h-8.7l3.9-4.9V109.8z"/>
		<path class="st1" d="M573.3,123l13.6-37.5h8.6l13.6,37.5H600l-10.6-32.3h3.4L582.2,123H573.3z M580.7,115.7l2.2-7.8h15l2.2,7.8
			H580.7z"/>
		<path class="st1" d="M611.6,123V85.5h7.2l16.9,25h-3.4v-25h8.5V123h-7.2l-17-25h3.4v25H611.6z M629.6,82.8c-0.7,0-1.4-0.2-2-0.5
			c-0.6-0.3-1.2-0.7-1.7-1.1c-0.5-0.4-1-0.8-1.4-1.2c-0.4-0.3-0.8-0.5-1.2-0.5c-0.6,0-1,0.3-1.4,0.8c-0.4,0.5-0.6,1.2-0.7,2.1h-4
			c0.1-2.6,0.6-4.7,1.6-6.2c1-1.5,2.3-2.3,4.1-2.3c0.7,0,1.4,0.2,2,0.5c0.6,0.3,1.2,0.7,1.7,1.2c0.5,0.4,1,0.8,1.4,1.2
			c0.4,0.3,0.8,0.5,1.2,0.5c0.6,0,1.1-0.2,1.5-0.8c0.4-0.5,0.6-1.2,0.6-2h4c0,2.5-0.5,4.5-1.5,6.1C632.7,82,631.3,82.8,629.6,82.8z"
			/>
		<path class="st1" d="M662.5,123.7c-2.4,0-4.7-0.5-6.8-1.4c-2.1-1-3.9-2.3-5.4-4.1c-1.5-1.8-2.7-3.8-3.6-6.2
			c-0.9-2.4-1.3-5-1.3-7.8c0-2.8,0.4-5.4,1.3-7.7c0.9-2.4,2.1-4.4,3.6-6.2c1.5-1.8,3.3-3.1,5.4-4.1c2.1-1,4.4-1.4,6.8-1.4
			s4.7,0.5,6.8,1.4c2.1,1,3.9,2.3,5.4,4.1c1.5,1.8,2.7,3.8,3.6,6.2s1.3,4.9,1.3,7.8c0,2.9-0.4,5.5-1.3,7.9c-0.9,2.4-2,4.4-3.6,6.2
			c-1.5,1.8-3.3,3.1-5.4,4.1C667.3,123.3,665,123.7,662.5,123.7z M662.5,115c1.2,0,2.3-0.2,3.3-0.8c1-0.5,1.9-1.2,2.6-2.2
			c0.7-0.9,1.3-2.1,1.8-3.4c0.4-1.3,0.6-2.8,0.6-4.4c0-1.6-0.2-3.1-0.6-4.4c-0.4-1.3-1-2.4-1.8-3.4c-0.7-0.9-1.6-1.7-2.6-2.2
			c-1-0.5-2.1-0.8-3.3-0.8s-2.3,0.3-3.3,0.8c-1,0.5-1.9,1.2-2.7,2.2c-0.8,0.9-1.3,2.1-1.8,3.4c-0.4,1.3-0.6,2.8-0.6,4.4
			c0,1.6,0.2,3.1,0.6,4.4c0.4,1.3,1,2.4,1.8,3.4c0.8,0.9,1.6,1.7,2.7,2.2C660.3,114.7,661.4,115,662.5,115z"/>
		<path class="st1" d="M684.3,123V85.5h8.7v29.1h14.6v8.4H684.3z"/>
	</g>
	<g>
		<path class="st1" d="M283.1,198.2c-4,0-7.6-0.8-10.6-2.5c-3-1.7-5.3-4.1-7-7.3c-1.7-3.2-2.5-7.2-2.5-12c0-5.1,1-9.4,2.9-13
			c1.9-3.6,4.6-6.3,8.1-8.2c3.5-1.9,7.5-2.8,12-2.8c2.4,0,4.8,0.3,7,0.8c2.2,0.5,4.1,1.3,5.7,2.4l-4.4,8.9c-1.2-0.9-2.5-1.5-3.9-1.8
			c-1.3-0.3-2.7-0.5-4.1-0.5c-3.3,0-6,1-8,3.1c-2,2.1-3,5.1-3,9c0,0.7,0,1.4,0,2.2c0,0.8,0.1,1.5,0.2,2.3l-3.1-2.5
			c0.8-1.5,1.8-2.8,3-3.9c1.2-1,2.6-1.8,4.2-2.4c1.6-0.5,3.4-0.8,5.5-0.8c2.7,0,5.2,0.6,7.5,1.7c2.2,1.1,4.1,2.7,5.4,4.8
			c1.4,2.1,2,4.5,2,7.3c0,3.1-0.8,5.7-2.3,8c-1.5,2.3-3.5,4-6.1,5.2C289.1,197.6,286.2,198.2,283.1,198.2z M282.3,189.4
			c1.2,0,2.2-0.2,3.1-0.7c0.9-0.4,1.6-1.1,2-1.9c0.5-0.8,0.7-1.8,0.7-3c0-1.7-0.5-3.1-1.6-4.1c-1.1-1-2.5-1.5-4.3-1.5
			c-1.2,0-2.2,0.2-3.1,0.7c-0.9,0.5-1.6,1.1-2.1,1.9c-0.5,0.8-0.8,1.8-0.8,2.9c0,1,0.2,2,0.7,2.8s1.2,1.5,2.1,2
			C280,189.1,281.1,189.4,282.3,189.4z"/>
		<path class="st1" d="M309.4,197.4v-39.5l5.3,5.2h-13.4v-9.7h20.3v44H309.4z"/>
		<path class="st1" d="M344.1,152.5c4,0,7.6,0.8,10.6,2.5c3,1.7,5.3,4.1,7,7.3c1.6,3.2,2.4,7.2,2.4,12c0,5.1-1,9.4-2.9,13
			c-1.9,3.6-4.6,6.3-8,8.2c-3.4,1.9-7.4,2.8-12.1,2.8c-2.4,0-4.8-0.3-7-0.8c-2.2-0.5-4.1-1.3-5.7-2.4l4.5-8.9
			c1.2,0.9,2.5,1.5,3.9,1.8c1.4,0.3,2.7,0.5,4.1,0.5c3.3,0,5.9-1,7.9-3.1c2-2.1,3-5.1,3-9c0-0.7,0-1.4-0.1-2.2
			c0-0.8-0.1-1.5-0.1-2.3l3,2.5c-0.7,1.5-1.7,2.8-2.9,3.9c-1.2,1-2.6,1.8-4.2,2.4c-1.6,0.5-3.4,0.8-5.5,0.8c-2.7,0-5.2-0.6-7.5-1.7
			c-2.2-1.1-4-2.7-5.4-4.8c-1.3-2.1-2-4.5-2-7.3c0-3.1,0.8-5.7,2.3-8c1.5-2.3,3.5-4,6.1-5.2C338,153.1,340.9,152.5,344.1,152.5z
			 M344.8,161.3c-1.2,0-2.2,0.2-3.1,0.7c-0.9,0.4-1.6,1.1-2.1,1.9c-0.5,0.8-0.7,1.8-0.7,3c0,1.7,0.6,3.1,1.7,4.1
			c1.1,1,2.5,1.5,4.3,1.5c1.2,0,2.2-0.2,3.1-0.7c0.9-0.5,1.6-1.1,2.1-1.9c0.5-0.8,0.7-1.8,0.7-2.9c0-1-0.2-2-0.7-2.8s-1.2-1.5-2.1-2
			C347.1,161.6,346,161.3,344.8,161.3z"/>
		<path class="st1" d="M369.8,179.6v-9.2h18.1v9.2H369.8z"/>
		<path class="st1" d="M393.1,188.9v-8l19.4-27.5h12.7l-18.9,27.5l-5.8-1.8h33.8v9.8H393.1z M416,197.4v-8.4l0.4-9.8v-7.5h11.6v25.8
			H416z"/>
		<path class="st1" d="M436.6,197.4v-7.9l16.1-15.3c1.2-1.1,2.1-2.1,2.6-2.9c0.5-0.9,0.9-1.6,1.1-2.3c0.2-0.7,0.3-1.3,0.3-1.9
			c0-1.4-0.5-2.5-1.4-3.3c-0.9-0.8-2.3-1.2-4.2-1.2c-1.6,0-3,0.4-4.4,1.1c-1.3,0.7-2.4,1.8-3.3,3.1l-9.1-5.1c1.6-2.8,3.9-5,6.9-6.7
			c3-1.7,6.7-2.5,10.9-2.5c3.3,0,6.3,0.6,8.8,1.7s4.5,2.6,5.9,4.6c1.4,2,2.1,4.3,2.1,7.1c0,1.4-0.2,2.8-0.6,4.2
			c-0.4,1.4-1.1,2.9-2.1,4.5c-1.1,1.6-2.6,3.3-4.7,5.2L449,191.9l-2.1-4.4h23.5v9.9H436.6z"/>
		<path class="st1" d="M494,198.2c-4,0-7.6-0.8-10.6-2.5c-3-1.7-5.3-4.1-7-7.3c-1.7-3.2-2.5-7.2-2.5-12c0-5.1,1-9.4,2.9-13
			c1.9-3.6,4.6-6.3,8.1-8.2c3.5-1.9,7.5-2.8,12-2.8c2.4,0,4.8,0.3,7,0.8c2.2,0.5,4.1,1.3,5.7,2.4l-4.4,8.9c-1.2-0.9-2.5-1.5-3.9-1.8
			c-1.3-0.3-2.7-0.5-4.1-0.5c-3.3,0-6,1-8,3.1c-2,2.1-3,5.1-3,9c0,0.7,0,1.4,0,2.2c0,0.8,0.1,1.5,0.2,2.3l-3.1-2.5
			c0.8-1.5,1.8-2.8,3-3.9c1.2-1,2.6-1.8,4.2-2.4c1.6-0.5,3.4-0.8,5.5-0.8c2.7,0,5.2,0.6,7.5,1.7s4.1,2.7,5.4,4.8
			c1.4,2.1,2,4.5,2,7.3c0,3.1-0.8,5.7-2.3,8c-1.5,2.3-3.5,4-6.1,5.2C500,197.6,497.1,198.2,494,198.2z M493.2,189.4
			c1.2,0,2.2-0.2,3.1-0.7c0.9-0.4,1.6-1.1,2-1.9c0.5-0.8,0.7-1.8,0.7-3c0-1.7-0.5-3.1-1.6-4.1c-1.1-1-2.5-1.5-4.3-1.5
			c-1.2,0-2.2,0.2-3.1,0.7s-1.6,1.1-2.1,1.9c-0.5,0.8-0.8,1.8-0.8,2.9c0,1,0.2,2,0.7,2.8c0.5,0.8,1.2,1.5,2.1,2
			C490.9,189.1,491.9,189.4,493.2,189.4z"/>
		<path class="st1" d="M515.5,179.6v-9.2h18.1v9.2H515.5z"/>
		<path class="st1" d="M559.3,198.2c-4,0-7.6-0.8-10.6-2.5c-3-1.7-5.3-4.1-7-7.3c-1.7-3.2-2.5-7.2-2.5-12c0-5.1,1-9.4,2.9-13
			c1.9-3.6,4.6-6.3,8.1-8.2c3.5-1.9,7.5-2.8,12-2.8c2.4,0,4.8,0.3,7,0.8c2.2,0.5,4.1,1.3,5.7,2.4l-4.4,8.9c-1.2-0.9-2.5-1.5-3.9-1.8
			c-1.3-0.3-2.7-0.5-4.1-0.5c-3.3,0-6,1-8,3.1c-2,2.1-3,5.1-3,9c0,0.7,0,1.4,0,2.2c0,0.8,0.1,1.5,0.2,2.3l-3.1-2.5
			c0.8-1.5,1.8-2.8,3-3.9c1.2-1,2.6-1.8,4.2-2.4c1.6-0.5,3.4-0.8,5.5-0.8c2.7,0,5.2,0.6,7.5,1.7s4.1,2.7,5.4,4.8
			c1.4,2.1,2,4.5,2,7.3c0,3.1-0.8,5.7-2.3,8c-1.5,2.3-3.5,4-6.1,5.2C565.3,197.6,562.5,198.2,559.3,198.2z M558.5,189.4
			c1.2,0,2.2-0.2,3.1-0.7c0.9-0.4,1.6-1.1,2-1.9c0.5-0.8,0.7-1.8,0.7-3c0-1.7-0.5-3.1-1.6-4.1c-1.1-1-2.5-1.5-4.3-1.5
			c-1.2,0-2.2,0.2-3.1,0.7s-1.6,1.1-2.1,1.9c-0.5,0.8-0.8,1.8-0.8,2.9c0,1,0.2,2,0.7,2.8c0.5,0.8,1.2,1.5,2.1,2
			C556.2,189.1,557.3,189.4,558.5,189.4z"/>
		<path class="st1" d="M597.9,198.2c-3.8,0-7-0.6-9.9-1.7c-2.8-1.1-5-2.7-6.6-4.8c-1.6-2.1-2.3-4.5-2.3-7.3c0-2.8,0.8-5.1,2.4-7.1
			c1.6-1.9,3.8-3.4,6.6-4.4s6.1-1.5,9.8-1.5c3.7,0,7,0.5,9.8,1.5c2.8,1,5,2.5,6.6,4.5c1.6,2,2.4,4.3,2.4,7c0,2.8-0.8,5.2-2.3,7.3
			c-1.6,2.1-3.8,3.7-6.6,4.8C605,197.7,601.7,198.2,597.9,198.2z M597.9,177.5c-3.3,0-6.3-0.5-8.9-1.4c-2.6-1-4.7-2.4-6.1-4.2
			c-1.5-1.8-2.2-4-2.2-6.6c0-2.6,0.7-4.8,2.2-6.8c1.5-1.9,3.5-3.4,6.1-4.5c2.6-1.1,5.6-1.6,9-1.6c3.4,0,6.4,0.5,9,1.6
			c2.6,1.1,4.6,2.6,6.1,4.5c1.5,1.9,2.2,4.2,2.2,6.8c0,2.6-0.7,4.7-2.2,6.6c-1.5,1.8-3.5,3.2-6.1,4.2
			C604.3,177,601.3,177.5,597.9,177.5z M597.9,189.5c2,0,3.6-0.5,4.7-1.4c1.2-1,1.8-2.3,1.8-4c0-1.7-0.6-3-1.8-4s-2.8-1.5-4.7-1.5
			c-2,0-3.6,0.5-4.7,1.5s-1.8,2.3-1.8,4c0,1.7,0.6,3.1,1.8,4C594.4,189,595.9,189.5,597.9,189.5z M597.9,170.5
			c1.5,0,2.8-0.4,3.7-1.3c1-0.8,1.5-2,1.5-3.4c0-1.5-0.5-2.6-1.5-3.4s-2.2-1.2-3.7-1.2c-1.5,0-2.7,0.4-3.7,1.2
			c-1,0.8-1.5,1.9-1.5,3.5c0,1.4,0.5,2.5,1.4,3.4C595.2,170.1,596.4,170.5,597.9,170.5z"/>
		<path class="st1" d="M636.6,152.5c4,0,7.6,0.8,10.6,2.5c3,1.7,5.3,4.1,7,7.3c1.6,3.2,2.4,7.2,2.4,12c0,5.1-1,9.4-2.9,13
			c-1.9,3.6-4.6,6.3-8,8.2c-3.4,1.9-7.4,2.8-12.1,2.8c-2.4,0-4.8-0.3-7-0.8c-2.2-0.5-4.1-1.3-5.7-2.4l4.5-8.9
			c1.2,0.9,2.5,1.5,3.9,1.8c1.4,0.3,2.7,0.5,4.1,0.5c3.3,0,5.9-1,7.9-3.1c2-2.1,3-5.1,3-9c0-0.7,0-1.4-0.1-2.2
			c0-0.8-0.1-1.5-0.1-2.3l3,2.5c-0.7,1.5-1.7,2.8-2.9,3.9c-1.2,1-2.6,1.8-4.2,2.4c-1.6,0.5-3.4,0.8-5.5,0.8c-2.7,0-5.2-0.6-7.5-1.7
			c-2.2-1.1-4-2.7-5.4-4.8c-1.3-2.1-2-4.5-2-7.3c0-3.1,0.8-5.7,2.3-8c1.5-2.3,3.5-4,6.1-5.2C630.6,153.1,633.5,152.5,636.6,152.5z
			 M637.4,161.3c-1.2,0-2.2,0.2-3.1,0.7c-0.9,0.4-1.6,1.1-2.1,1.9c-0.5,0.8-0.7,1.8-0.7,3c0,1.7,0.6,3.1,1.7,4.1
			c1.1,1,2.5,1.5,4.3,1.5c1.2,0,2.2-0.2,3.1-0.7s1.6-1.1,2.1-1.9c0.5-0.8,0.7-1.8,0.7-2.9c0-1-0.2-2-0.7-2.8c-0.5-0.8-1.2-1.5-2.1-2
			C639.7,161.6,638.6,161.3,637.4,161.3z"/>
		<path class="st1" d="M666.8,197.4v-39.5l5.3,5.2h-13.4v-9.7H679v44H666.8z"/>
	</g>
</g>
</svg>
